<svg xmlns:dc="http://purl.org/dc/elements/1.1/" xmlns:cc="http://creativecommons.org/ns#" xmlns:rdf="http://www.w3.org/1999/02/22-rdf-syntax-ns#" xmlns:svg="http://www.w3.org/2000/svg" xmlns="http://www.w3.org/2000/svg" xmlns:sodipodi="http://sodipodi.sourceforge.net/DTD/sodipodi-0.dtd" xmlns:inkscape="http://www.inkscape.org/namespaces/inkscape" viewBox="0 0 16.933333 16.933333" version="1.1" x="0px" y="0px"><g transform="translate(0,-280.06667)"  display="inline"><path  d="m 27,31 c -0.554,0 -1,0.39025 -1,0.875 v 5.169922 c -5.42331,0.4516 -9.897746,4.539741 -10.816406,9.945312 l -6.8730471,4.28125 C 6.7884569,52.226558 6,54 6,56 c 0,1.116118 0.3200344,2.243533 0.9277344,3.205078 1.63325,2.584232 4.9685376,3.518751 7.7050776,2.181641 l 2.294922,-1.080078 C 17.534544,60.055291 18.20033,59.805983 19,60.267578 19.62019,60.625648 20,61.28387 20,62 19.6753,74.91505 13.199149,80.281922 8.7929688,82.513672 7.0847987,83.353812 6,85.09644 6,87 v 2 c 0,1.06048 0.421835,2.078255 1.171875,2.828125 C 7.921745,92.578025 8.93952,93 10,93 h 16 c 0.55228,0 1,-0.44772 1,-1 0,-0.55228 -0.44772,-1 -1,-1 H 10 C 9.46918,91 8.9612775,90.789423 8.5859375,90.414062 8.2105875,90.038722 8,89.53082 8,89 V 87 C 8,85.85438 8.6477612,84.814174 9.6757812,84.308594 14.564811,81.835434 21.66212,75.61926 22,62 22,60.57254 21.23622,59.248886 20,58.535156 19.38119,58.178499 18.69095,58 18,58 c -0.64918,0 -1.496184,0.26714 -1.927734,0.498047 l -2.222657,1.048828 C 12.000119,60.49273 9.7289406,59.892731 8.6191406,58.136719 7.5098406,56.3815 7.9573331,53.872367 9.5644531,52.826172 l 7.0507809,-4.371094 c 0.29196,-0.175528 0.474495,-0.487602 0.484375,-0.828125 C 17.785079,42.681001 21.99555,39 27,39 c 0.554,0 1,-0.39025 1,-0.875 v -5.076172 c 3.34736,0.239786 6.511631,1.662018 8.900391,4.050781 C 39.526171,39.72539 41,43.286585 41,47 v 2 c 0,0.552285 0.44772,1 1,1 0.55228,0 1,-0.447715 1,-1 V 47 C 43,42.756921 41.31281,38.687811 38.3125,35.6875 35.31219,32.68719 31.24308,31 27,31 Z m 16.5,21 c -3.714102,-1.31e-4 -6.934087,2.599441 -7.726562,6.236328 -0.626209,2.873837 0.399582,5.786731 2.521484,7.650391 h -2.703125 c -0.698953,0 -1.371,0.279509 -1.865235,0.77539 -0.494234,0.495881 -0.771484,1.169813 -0.771484,1.871094 v 1.322266 c 0,0.701281 0.27725,1.373259 0.771484,1.86914 C 34.220797,72.22049 34.892844,72.5 35.591797,72.5 h 2.615234 C 37.993026,81.040508 33.743908,84.58863 30.839844,86.064453 29.714005,86.619974 29,87.772451 29,89.03125 v 1.324219 c 0,0.701281 0.27725,1.373259 0.771484,1.86914 C 30.265719,92.72049 30.937766,93 31.636719,93 h 23.726562 c 0.698953,0 1.371,-0.27951 1.865235,-0.775391 C 57.72275,91.728728 58,91.05675 58,90.355469 V 89.03125 C 58,87.772451 57.284042,86.619974 56.158203,86.064453 53.254138,84.58863 49.006974,81.040508 48.792969,72.5 h 2.615234 c 0.698953,0 1.371,-0.27951 1.865235,-0.775391 0.494234,-0.495881 0.771484,-1.167859 0.771484,-1.86914 v -1.322266 c 0,-0.701281 -0.27725,-1.375213 -0.771484,-1.871094 -0.494235,-0.495881 -1.166282,-0.77539 -1.865235,-0.77539 h -2.703125 c 2.121902,-1.86366 3.147693,-4.776554 2.521484,-7.650391 C 50.434087,54.599441 47.214102,51.999869 43.5,52 Z" transform="matrix(0.26458333,0,0,0.26458333,-1.08125e-7,272.12917)"></path></g></svg>