<svg width="461" height="147" viewBox="0 0 150 100" fill="none" xmlns="http://www.w3.org/2000/svg">
<rect width="461" height="147" fill="white"/>
<path d="M55.7813 15.8438C54.7598 15.8438 53.9375 16.5633 53.9375 17.4571V26.9891C43.9383 27.8217 35.6885 35.3593 33.9948 45.3258L21.3226 53.2193C18.5162 54.9803 17.0625 58.25 17.0625 61.9375C17.0625 63.9954 17.6526 66.074 18.773 67.8469C21.7843 72.6116 27.9338 74.3346 32.9792 71.8693L37.2105 69.8779C38.3293 69.4145 39.5569 68.9548 41.0313 69.8059C42.1747 70.4661 42.875 71.6797 42.875 73C42.2763 96.8122 30.3359 106.707 22.212 110.822C19.0626 112.371 17.0625 115.584 17.0625 119.094V122.781C17.0625 124.737 17.8403 126.613 19.2231 127.996C20.6057 129.378 22.4822 130.156 24.4375 130.156H53.9375C54.9558 130.156 55.7813 129.331 55.7813 128.313C55.7813 127.294 54.9558 126.469 53.9375 126.469H24.4375C23.4588 126.469 22.5224 126.081 21.8303 125.388C21.1383 124.696 20.75 123.76 20.75 122.781V119.094C20.75 116.982 21.9443 115.064 23.8397 114.132C32.8539 109.572 45.9395 98.1105 46.5625 73C46.5625 70.3682 45.1543 67.9277 42.875 66.6117C41.7341 65.9541 40.4614 65.625 39.1875 65.625C37.9906 65.625 36.4289 66.1176 35.6332 66.5433L31.5352 68.4771C28.1252 70.221 23.9377 69.1148 21.8915 65.8771C19.8463 62.6409 20.6713 58.0147 23.6345 56.0858L36.6343 48.0266C37.1726 47.703 37.5092 47.1276 37.5274 46.4997C38.7912 37.3806 46.5543 30.5938 55.7813 30.5938C56.8027 30.5938 57.625 29.8743 57.625 28.9805V19.6213C63.7967 20.0634 69.6308 22.6857 74.0351 27.0899C78.8764 31.9312 81.5938 38.4972 81.5938 45.3438V49.0313C81.5938 50.0496 82.4192 50.875 83.4375 50.875C84.4558 50.875 85.2813 50.0496 85.2813 49.0313V45.3438C85.2813 37.5206 82.1705 30.0182 76.6387 24.4864C71.1069 18.9545 63.6044 15.8438 55.7813 15.8438ZM86.2031 54.5625C79.3553 54.5623 73.4184 59.3553 71.9573 66.0608C70.8027 71.3594 72.694 76.73 76.6063 80.1662H71.6224C70.3337 80.1662 69.0946 80.6815 68.1834 81.5958C67.2721 82.5101 66.7609 83.7526 66.7609 85.0456V87.4836C66.7609 88.7765 67.2721 90.0155 68.1834 90.9298C69.0946 91.8441 70.3337 92.3594 71.6224 92.3594H76.4442C76.0496 108.106 68.2153 114.648 62.861 117.369C60.7852 118.393 59.4688 120.518 59.4688 122.839V125.28C59.4688 126.573 59.9799 127.812 60.8912 128.727C61.8024 129.641 63.0415 130.156 64.3302 130.156H108.076C109.365 130.156 110.604 129.641 111.515 128.727C112.426 127.812 112.938 126.573 112.938 125.28V122.839C112.938 120.518 111.617 118.393 109.542 117.369C104.187 114.648 96.3566 108.106 95.962 92.3594H100.784C102.073 92.3594 103.312 91.8441 104.223 90.9298C105.134 90.0155 105.645 88.7765 105.645 87.4836V85.0456C105.645 83.7526 105.134 82.5101 104.223 81.5958C103.312 80.6815 102.073 80.1662 100.784 80.1662H95.8C99.7122 76.73 101.604 71.3594 100.449 66.0608C98.9879 59.3553 93.051 54.5623 86.2031 54.5625Z" fill="black"/>
<path d="M126.208 87.04C126.208 70.336 137.056 61.408 151.744 61.408C167.584 61.408 175.264 71.296 174.976 85.888C174.976 87.328 174.88 89.824 174.784 91.264H142.624C144.064 96.544 148.384 99.616 155.392 99.616C160.768 99.616 164.704 97.408 168.832 94.432L172.384 106.432C167.008 110.56 160.768 112.864 152.032 112.864C136.672 112.864 126.208 103.84 126.208 87.04ZM142.24 83.2H162.112C162.112 78.208 158.944 73.792 152.224 73.792C146.848 73.792 143.296 77.344 142.24 83.2ZM179.94 79.744C179.94 57.856 194.244 46.816 213.444 46.816C223.524 46.816 229.572 48.16 237.06 50.272V76.096H221.796L220.74 61.12C218.436 60.832 215.844 60.736 213.156 60.736C203.652 60.736 196.26 68.032 196.26 79.744C196.26 91.648 203.652 98.848 215.556 98.848C223.332 98.848 230.148 96.16 234.66 93.184L238.02 106.432C232.164 110.176 223.812 112.864 214.116 112.864C194.052 112.864 179.94 101.632 179.94 79.744ZM242.445 112V100.576H248.109V55.456H242.445V44.032H263.469V67.264C266.541 63.808 270.669 61.312 276.429 61.312C288.045 61.312 294.477 68.416 294.477 82.24V100.576H300.141V112H279.117V86.08C279.117 77.344 276.717 73.696 271.341 73.696C267.597 73.696 265.005 76.48 263.469 79.936V100.576H269.133V112H242.445ZM302.083 87.04C302.083 70.336 312.931 61.408 327.619 61.408C343.459 61.408 351.139 71.296 350.851 85.888C350.851 87.328 350.755 89.824 350.659 91.264H318.499C319.939 96.544 324.259 99.616 331.267 99.616C336.643 99.616 340.579 97.408 344.707 94.432L348.259 106.432C342.883 110.56 336.643 112.864 327.907 112.864C312.547 112.864 302.083 103.84 302.083 87.04ZM318.115 83.2H337.987C337.987 78.208 334.819 73.792 328.099 73.792C322.723 73.792 319.171 77.344 318.115 83.2ZM377.127 61.408C384.903 61.408 391.527 63.328 394.887 64.96V78.88H384.135L383.463 72.064C381.831 71.68 380.103 71.488 378.279 71.488C373.767 71.488 370.695 72.64 370.695 75.328C370.695 82.624 396.711 81.472 396.711 98.464C396.711 107.392 390.951 112.864 376.743 112.864C368.679 112.864 361.191 111.136 355.431 109.312V94.72H366.951L367.623 101.536C369.927 102.016 372.231 102.4 374.535 102.4C378.375 102.4 381.063 101.344 381.063 98.272C381.063 91.84 355.047 92.992 355.047 76.384C355.047 67.264 362.439 61.408 377.127 61.408ZM422.784 61.408C430.56 61.408 437.184 63.328 440.544 64.96V78.88H429.792L429.12 72.064C427.488 71.68 425.76 71.488 423.936 71.488C419.424 71.488 416.352 72.64 416.352 75.328C416.352 82.624 442.368 81.472 442.368 98.464C442.368 107.392 436.608 112.864 422.4 112.864C414.336 112.864 406.848 111.136 401.088 109.312V94.72H412.608L413.28 101.536C415.584 102.016 417.888 102.4 420.192 102.4C424.031 102.4 426.72 101.344 426.72 98.272C426.72 91.84 400.704 92.992 400.704 76.384C400.704 67.264 408.096 61.408 422.784 61.408Z" fill="black"/>
</svg>
